<?xml version="1.0" encoding="UTF-8"?>
<svg id="Layer_1" data-name="Layer 1" xmlns="http://www.w3.org/2000/svg" viewBox="0 0 48 48">
  <defs>
    <style>
      .cls-1 {
        stroke: #000;
        stroke-miterlimit: 10;
        stroke-width: .5px;
      }
    </style>
  </defs>
  <path class="cls-1" d="M23.22,32.94c.24.24.43.41.73.42.31,0,.52-.13.78-.4l6.92-6.93c.27-.27.23-.66.09-.95-.14-.28-.44-.38-.8-.38h-3.81s-.01-6.36-.01-6.36c0-.4-.37-.71-.74-.71h-4.79c-.43,0-.75.36-.75.79v6.28s-3.97.01-3.97.01c-.35,0-.6.23-.69.48-.1.28-.09.61.14.84l6.9,6.92ZM21.74,26.26c.38,0,.64-.36.67-.73v-6.31s3.13,0,3.13,0v6.23c.01.45.31.8.76.82.93.04,1.83-.05,2.81.04l-5.13,5.15-5.14-5.14,2.89-.06Z"/>
  <circle class="cls-1" cx="23.98" cy="42.48" r=".8"/>
  <path class="cls-1" d="M16.81,38.07h13.98c.21,0,.48.04.67-.05.18-.13.39-.42.39-.66v-2.55c0-.25-.2-.43-.38-.61-.25-.05-.5-.13-.77.02-.18.1-.4.28-.41.59l-.02,1.68h-12.55s-.04-1.69-.04-1.69c0-.43-.4-.66-.78-.67-.36,0-.77.25-.77.67v2.56c0,.34.3.7.67.7Z"/>
  <path class="cls-1" d="M38.25,2.99h-.09s-.03,0-.05,0l-23.8.03c-2.78,0-5.26,2.41-5.26,5.21v29.72c0,2.98,2.58,5.32,5.47,5.32h5.86c.51,0,.87-.36.84-.84-.02-.45-.38-.75-.85-.75l-6.06-.02c-2.14,0-3.71-1.9-3.71-4.01V12.42c1.09.88,2.2,1.56,3.57,1.56l23.13.02v27.68l-9.95.02c-.44,0-.65.53-.63.82.04.46.37.74.85.74h9.73s0,.01,0,.01h.95c.38,0,.69-.32.69-.7V3.68c0-.38-.31-.7-.7-.7ZM37.31,7.7h-20.36c-.48,0-.79.3-.83.71-.04.36.19.87.72.87h20.47v3.14l-22.91-.02c-2.14,0-3.79-1.88-3.78-3.92.01-2.1,1.69-3.91,3.87-3.91l22.82-.02v3.15Z"/>
</svg>